<?xml version="1.0" encoding="utf-8"?>

<svg version="1.1" xmlns="http://www.w3.org/2000/svg" xmlns:xlink="http://www.w3.org/1999/xlink" x="0px" y="0px" width="320" height="320" viewBox="0 0 320 320" enable-background="new 0 0 320 320" xml:space="preserve"><!--{"metaAttributes":{"multicolor":true,"glyph":false,"rotatable":false,"deprecated":false,"rename":false,"themeable":false,"low-quality":false,"custom-viewport":false,"lottie":false}}-->
<path fill="#FFF48D" d="M213.73,31.95H106.27C65.25,31.95,32,65.22,32,106.25v107.49c0,41.04,33.25,74.3,74.27,74.3h107.45
	c41.02,0,74.27-33.26,74.27-74.3V106.25C288,65.22,254.75,31.95,213.73,31.95z"/>
<g>
	<path fill="#1D1C1C" d="M220.96,160.02c0-13.95,10.04-26.66,27.39-26.66c17.41,0,27.46,12.72,27.46,26.66s-10.04,26.66-27.46,26.66
		C231.01,186.69,220.96,173.97,220.96,160.02z M260.56,160.02c0-6.72-4.48-12.93-12.21-12.93c-7.66,0-12.21,6.21-12.21,12.93
		c0,6.72,4.55,12.93,12.21,12.93C256.08,172.96,260.56,166.74,260.56,160.02z"/>
	<path fill="#1D1C1C" d="M210.3,169.92c5.78-3.25,9.25-9.47,9.25-16.33c0-10.19-7.44-18.86-19-18.86h-24.28v50.58h15.03v-12.93h2.82
		l8.6,12.93h17.7L210.3,169.92z M197.51,160.75h-6.21v-14.31h6.29c4.05,0,6.65,3.25,6.65,7.15
		C204.23,157.5,201.56,160.75,197.51,160.75z"/>
	<polygon fill="#1D1C1C" points="107.66,134.68 98.64,164.83 89.84,134.68 77.87,134.68 69,164.83 60.06,134.68 44.19,134.68 
		62.37,185.17 75.42,185.17 83.86,157.69 92.22,185.17 105.35,185.17 123.52,134.68 	"/>
	<path fill="#1D1C1C" d="M146.27,172.83c-0.01,0-0.02,0-0.04,0c-5.62,0-9.56-3.35-11.26-7.8h38h0.19c0.31-1.67,0.47-3.38,0.47-5.11
		c0-13.91-10.01-26.59-27.37-26.61v13.7c5.65,0.01,9.56,3.36,11.23,7.8h-38.14c-0.3,1.67-0.46,3.38-0.46,5.11
		c0,13.92,10.02,26.61,27.33,26.61c0.01,0,0.02,0,0.04,0V172.83z"/>
	<g>
		<linearGradient id="SVGID_1_" gradientUnits="userSpaceOnUse" x1="164.9326" y1="156.778" x2="141.5148" y2="185.7881">
			<stop offset="0.0243" style="stop-color:#1D1C1C;stop-opacity:0"/>
			<stop offset="0.676" style="stop-color:#1D1C1C"/>
		</linearGradient>
		<path fill="url(#SVGID_1_)" d="M146.23,186.54c0.59,0,1.17-0.02,1.74-0.05c3.52-0.18,6.71-0.89,9.55-2.03
			c2.85-1.14,5.34-2.71,7.47-4.61c2.13-1.9,3.88-4.12,5.24-6.57c1.24-2.22,2.14-4.63,2.71-7.15h-15.92
			c-0.33,0.67-0.71,1.31-1.14,1.91c-0.59,0.82-1.29,1.56-2.08,2.2c-0.79,0.64-1.67,1.18-2.65,1.6c-0.97,0.42-2.04,0.71-3.19,0.86
			c-0.56,0.07-1.14,0.11-1.74,0.11c-3.58,0-6.48-1.36-8.55-3.5l-10.35,10.35C131.94,183.89,138.32,186.54,146.23,186.54z"/>
		
			<linearGradient id="SVGID_00000178890757222070328420000007824490646106216834_" gradientUnits="userSpaceOnUse" x1="123.9585" y1="163.2782" x2="148.0219" y2="139.2148">
			<stop offset="0.0243" style="stop-color:#1D1C1C;stop-opacity:0"/>
			<stop offset="0.676" style="stop-color:#1D1C1C"/>
		</linearGradient>
		<path fill="url(#SVGID_00000178890757222070328420000007824490646106216834_)" d="M146.23,133.31c-14.68,0-24.12,9.13-26.65,20.4
			h15.87c1.9-3.88,5.63-6.69,10.78-6.69c4.1,0,7.28,1.75,9.37,4.4l10.44-10.44C161.37,136.3,154.67,133.31,146.23,133.31z"/>
	</g>
</g>

</svg>
